<svg width="22" height="23" viewBox="0 0 22 23" fill="none" xmlns="http://www.w3.org/2000/svg">
<g clip-path="url(#clip0)">
<path d="M11.2419 1.05778C11.2419 1.63891 10.7635 2.1103 10.1713 2.11557L2.97744 2.17087C2.2034 2.17087 2.20161 2.17263 2.20161 2.89859C2.20072 7.35445 2.20161 11.8112 2.20161 16.267C2.20161 17.5232 2.20161 18.7794 2.20161 20.0356C2.20161 20.8449 2.20251 20.8467 2.98371 20.8467L10.1194 20.8116C10.7384 20.8089 11.2419 21.2996 11.2419 21.9062C11.2419 22.511 10.7429 23.0009 10.1256 23.0009C7.98091 23.0018 3.2901 23.0026 0.957241 22.9982C0.483323 22.9974 0.0183638 22.5163 0.00313391 22.0432C-0.00224134 21.8641 0.00223804 21.6841 0.00223804 21.5051C0.00223804 15.9563 0.0318019 4.56822 0.0407607 1.05603C0.0425524 0.471394 0.525429 0 1.12029 0H10.1633C10.759 0 11.2419 0.47315 11.2419 1.05778Z" fill="#444444"/>
<path d="M18.0536 10.4277C18.0536 10.4277 18.2194 10.3891 18.3018 10.368C18.2561 10.3048 18.2185 10.2328 18.1629 10.1793C17.3011 9.3322 16.4375 8.48685 15.5739 7.64062C15.444 7.51333 15.2961 7.40009 15.1904 7.25701C15.0578 7.07793 14.8518 6.86198 14.8724 6.68291C14.9046 6.3941 15.0587 6.09827 15.2307 5.8516C15.4664 5.51364 16.1723 5.48643 16.588 5.76733C16.7116 5.85072 16.8066 5.97538 16.9141 6.08072C18.4245 7.56074 19.9359 9.04076 21.4463 10.5208C21.5538 10.6261 21.6783 10.7209 21.767 10.8403C22.077 11.259 22.0788 11.7603 21.7652 12.1772C21.6577 12.3203 21.5099 12.4336 21.38 12.56C19.9126 13.9979 18.4451 15.4357 16.9768 16.8736C16.8908 16.9579 16.8137 17.0562 16.7161 17.1256C16.1042 17.561 15.4708 17.6224 15.0319 16.7981C14.8016 16.3662 14.8437 16.1046 15.254 15.6947C16.1078 14.8397 16.9777 14.0005 17.8413 13.1543C17.9712 13.027 18.102 12.9023 18.2283 12.7724C18.2606 12.739 18.2767 12.689 18.3 12.6469C18.2471 12.6267 18.1952 12.5907 18.1423 12.5889C17.8987 12.5828 17.4095 12.5863 17.4095 12.5863H5.35372C4.74542 12.5863 4.25269 12.1035 4.25269 11.5075C4.25269 10.9114 4.74542 10.4286 5.35372 10.4286L18.0536 10.4277Z" fill="#444444"/>
</g>
<defs>
<clipPath id="clip0">
<rect width="22" height="23" fill="white"/>
</clipPath>
</defs>
</svg>
