<svg width="30" height="30" viewBox="0 0 30 30" fill="none" xmlns="http://www.w3.org/2000/svg">
<path d="M15 30C23.2843 30 30 23.2843 30 15C30 6.71573 23.2843 0 15 0C6.71573 0 0 6.71573 0 15C0 23.2843 6.71573 30 15 30Z" fill="#9E0000"/>
<path d="M9.4875 22C9.225 22 9.05 21.9125 8.7875 21.825C8.35 21.5625 8 21.125 8 20.6875C8 19.9875 8.2625 19.6375 8.525 19.4625L12.8125 15.175C12.9 15 12.9 15 12.9 15C12.9 15 12.8125 15 12.8125 14.9125L8.4375 10.5375C8 10.1 7.9125 9.575 8.0875 8.9625C8.2625 8.4375 8.875 8 9.4875 8C9.8375 8 10.1 8.0875 10.3625 8.35C10.45 8.35 10.5375 8.4375 10.625 8.525L14.9125 12.8125L15 12.9L19.375 8.525C19.725 8.175 20.075 8 20.5125 8C20.775 8 21.0375 8.0875 21.2125 8.175C21.5625 8.35 21.825 8.7 21.9125 9.1375C22 9.575 21.9125 10.0125 21.65 10.3625C21.5625 10.45 21.475 10.5375 21.3875 10.625L17.1 14.9125L17.0125 15L21.3875 19.375C21.825 19.8125 22 20.3375 21.825 20.95C21.7375 21.5625 21.125 22 20.5125 22C20.1625 22 19.9 21.9125 19.6375 21.7375C19.55 21.65 19.4625 21.5625 19.375 21.475L15.0875 17.1875L15 17.1L10.625 21.475C10.275 21.825 9.8375 22 9.4875 22Z" fill="white"/>
</svg>
