<svg width="18" height="18" viewBox="0 0 18 18" fill="none" xmlns="http://www.w3.org/2000/svg">
<path d="M0.0375948 13.6352C1.57404 12.1194 3.11641 10.5976 4.63801 9.09771C3.05705 7.50851 1.52259 5.96793 0 4.43726C1.52457 2.94031 2.97197 1.51777 4.42728 0.0882888C5.8638 1.53265 7.39727 3.07523 8.91294 4.59895C10.5077 3.01769 12.0452 1.49397 13.551 0C15.0191 1.44833 16.4655 2.87385 17.9268 4.31524C16.3943 5.84591 14.8549 7.38352 13.2917 8.94395C14.9054 10.5302 16.4606 12.0579 18 13.5697C16.4942 15.0696 15.0646 16.4921 13.6509 17.8988C12.158 16.4148 10.6146 14.8811 9.0831 13.3594C7.49225 14.9535 5.95581 16.4951 4.45499 17.999C2.95218 16.514 1.50874 15.0885 0.0375948 13.6352Z" fill="#AAAAAA"/>
</svg>
