<svg width="30" height="30" viewBox="0 0 30 30" fill="none" xmlns="http://www.w3.org/2000/svg">
<path d="M15 30C23.2843 30 30 23.2843 30 15C30 6.71573 23.2843 0 15 0C6.71573 0 0 6.71573 0 15C0 23.2843 6.71573 30 15 30Z" fill="#32A558"/>
<path d="M13.3467 20.8617C13.001 20.8617 12.6553 20.7414 12.3847 20.4859L7.51499 15.9468C6.97391 15.4358 6.95888 14.6092 7.48493 14.0831C8.01099 13.5571 8.88273 13.542 9.42381 14.0531L13.3166 17.7054L20.5611 10.7314C21.1022 10.2204 21.9589 10.2204 22.5 10.7314C23.041 11.2424 23.041 12.0691 22.5 12.5801L14.2936 20.4709C14.038 20.7264 13.6923 20.8617 13.3467 20.8617Z" fill="white"/>
</svg>
